<?xml version="1.0" standalone="no"?>
<!DOCTYPE svg PUBLIC "-//W3C//DTD SVG 20010904//EN"
 "http://www.w3.org/TR/2001/REC-SVG-20010904/DTD/svg10.dtd">
<svg version="1.0" xmlns="http://www.w3.org/2000/svg"
 width="512.000000pt" height="512.000000pt" viewBox="0 0 512.000000 512.000000"
 preserveAspectRatio="xMidYMid meet">
<metadata>
Created by potrace 1.14, written by Peter Selinger 2001-2017
</metadata>
<g transform="translate(0.000000,512.000000) scale(0.100000,-0.100000)"
fill="#000000" stroke="none">
<path d="M1195 5108 c-34 -12 -91 -52 -117 -83 -10 -11 -26 -43 -37 -71 -47
-122 9 -263 126 -320 l55 -27 539 -1 c296 -1 540 1 540 4 1 3 3 41 3 85 l2 80
-534 5 -534 5 -19 24 c-10 13 -19 36 -19 51 0 77 30 90 203 90 l134 0 2 85 2
85 -158 -1 c-87 0 -171 -5 -188 -11z"/>
<path d="M3670 4821 l0 -298 -22 0 c-56 -1 -55 1 -67 -95 -7 -51 -14 -104 -16
-118 -2 -14 -6 -50 -10 -80 -13 -114 -16 -136 -20 -160 -2 -14 -7 -47 -10 -75
-15 -138 -15 -137 -70 -195 -166 -176 -168 -426 -6 -587 l50 -50 0 -280 0
-280 -44 -22 c-75 -38 -161 -107 -220 -178 -54 -65 -116 -177 -131 -236 -6
-28 -8 -28 -73 -27 -36 1 -81 1 -98 1 l-33 -1 0 -90 0 -89 75 2 c41 2 80 0 85
-3 6 -4 12 -20 14 -36 13 -101 21 -137 47 -205 16 -42 48 -103 70 -135 44 -64
151 -170 181 -180 10 -3 18 -10 18 -15 0 -5 7 -9 15 -9 20 0 31 -29 66 -170
18 -72 27 -130 24 -155 -2 -22 -7 -71 -10 -110 -3 -38 -8 -99 -11 -135 -3 -36
-7 -83 -9 -105 -2 -22 -6 -80 -10 -130 -4 -49 -9 -106 -10 -125 -2 -19 -7 -75
-11 -125 -7 -84 -11 -130 -13 -147 -1 -5 -158 -8 -351 -8 l-350 0 -1 33 c-1
17 -2 43 -3 57 -2 14 -6 72 -10 130 -4 58 -9 128 -11 155 -2 28 -7 86 -10 130
-3 44 -8 100 -10 125 -2 25 -7 90 -10 145 -3 55 -8 118 -10 140 -2 22 -7 78
-10 125 -3 47 -8 110 -10 140 -16 211 -20 267 -30 405 -3 50 -8 108 -10 130
-3 22 -7 85 -10 140 -4 55 -8 116 -10 135 -4 40 -17 219 -19 269 -2 35 -22 51
-58 45 -22 -3 -20 -78 -20 646 0 333 -2 612 -4 621 -3 12 -20 15 -89 15 l-84
0 0 -632 c1 -348 -2 -637 -5 -642 -3 -5 -19 -8 -36 -7 -17 1 -30 -2 -31 -9 0
-6 -2 -19 -4 -29 -3 -15 -11 -132 -20 -277 -4 -53 -13 -182 -20 -260 -3 -30
-7 -89 -10 -130 -3 -41 -8 -102 -10 -135 -3 -33 -7 -91 -10 -130 -9 -135 -17
-230 -20 -275 -2 -25 -7 -83 -10 -130 -6 -85 -10 -139 -19 -260 -3 -36 -8
-108 -11 -160 -4 -52 -8 -111 -10 -130 -2 -19 -7 -84 -11 -145 -4 -60 -8 -117
-10 -125 -1 -8 -3 -36 -3 -62 l-1 -48 -305 0 -305 0 -1 38 c-1 20 -2 48 -4 62
-1 14 -5 75 -9 135 -3 61 -8 139 -11 175 -11 156 -16 231 -20 318 -3 51 -7
114 -9 140 -3 26 -8 103 -12 172 -3 69 -8 141 -9 160 -11 122 -6 179 25 302
30 119 35 129 69 155 225 172 300 482 177 735 -41 85 -90 147 -162 206 -46 38
-55 51 -82 130 -37 107 -39 118 -57 267 -3 28 -8 64 -10 80 -2 17 -7 53 -10
80 -4 28 -8 64 -10 80 -2 17 -9 73 -15 125 -28 232 -27 228 -61 225 -16 -1
-32 2 -36 8 -3 6 -7 159 -7 341 l-1 331 -87 3 -86 3 -1 -323 c0 -178 -1 -333
-1 -344 0 -19 -5 -21 -34 -18 -42 4 -36 32 -81 -336 -55 -452 -46 -399 -86
-522 -27 -81 -39 -103 -64 -120 -50 -35 -131 -123 -163 -180 -71 -127 -96
-284 -65 -419 29 -130 134 -291 226 -348 30 -19 35 -29 66 -155 35 -145 35
-151 16 -476 -2 -30 -6 -107 -9 -170 -4 -63 -8 -144 -11 -180 -4 -63 -12 -199
-20 -345 -14 -272 -17 -321 -22 -327 -2 -5 -177 -8 -389 -8 l-384 0 0 -85 0
-85 2560 0 2560 0 0 85 0 85 -518 0 -517 0 -1 27 c-1 43 -15 208 -29 358 -6
59 -15 177 -20 255 -2 30 -7 84 -11 120 -13 119 -9 202 14 280 12 41 27 92 32
112 8 26 21 43 48 59 79 48 180 154 228 239 49 86 91 236 89 313 l-1 27 88 0
88 0 0 88 0 89 -97 -2 -98 -1 -30 76 c-61 151 -178 283 -312 353 l-63 32 0
281 0 282 33 29 c177 157 183 423 13 601 -46 49 -55 64 -61 107 -9 72 -13 99
-25 200 -6 50 -13 104 -15 120 -8 53 -25 188 -31 240 -3 27 -7 51 -9 53 -1 2
-19 4 -39 5 l-36 2 0 303 0 302 -85 0 -85 0 0 -299z"/>
<path d="M2471 4695 c-1 -47 2 -85 6 -86 11 -1 134 -1 156 0 15 1 17 12 17 86
l0 85 -89 0 -88 0 -2 -85z"/>
<path d="M4180 4695 c0 -74 2 -85 18 -86 78 -4 655 -3 661 1 4 3 7 42 8 88 l1
82 -344 0 -344 0 0 -85z"/>
<path d="M1810 4430 c-118 -35 -191 -137 -186 -259 3 -79 28 -132 84 -183 59
-53 96 -62 272 -62 l155 -1 0 87 1 87 -142 0 c-171 0 -191 8 -199 86 -3 26 27
65 55 72 17 5 221 8 455 8 l425 0 0 87 0 88 -447 -1 c-247 -1 -459 -4 -473 -9z"/>
<path d="M2900 4353 l0 -88 85 0 c96 -1 87 -13 88 105 l0 65 -86 3 -87 3 0
-88z"/>
<path d="M4378 4429 c-10 -5 -18 -7 -18 -4 0 11 -76 -34 -104 -61 -52 -52 -71
-101 -71 -184 0 -88 22 -137 81 -190 65 -57 92 -63 269 -64 l160 -1 0 85 0 85
-140 2 c-83 2 -149 7 -162 14 -54 29 -45 130 14 146 15 3 182 7 371 7 l342 1
0 87 0 88 -362 0 c-228 0 -370 -4 -380 -11z"/>
</g>
</svg>
